<svg xmlns="http://www.w3.org/2000/svg" width="64" height="64" viewBox="0 0 64 64"><g fill="#FFF"><path d="M44.5 28.429c2.959 0 5.356-2.399 5.356-5.357a5.356 5.356 0 1 0-5.356 5.357z"/><path d="M53.876 10.571h-43.75C8.384 10.571 7 11.988 7 13.73v36.54c0 1.741 1.384 3.159 3.125 3.159h43.75c1.741 0 3.124-1.417 3.124-3.159V13.73c.001-1.741-1.382-3.159-3.123-3.159zM42.368 32.636c-.336-.391-.847-.692-1.429-.692-.569 0-.971.269-1.429.637l-2.086 1.763c-.436.313-.781.523-1.284.523a1.85 1.85 0 0 1-1.228-.456c-.112-.101-.313-.29-.481-.458l-6.004-6.495a2.457 2.457 0 0 0-1.863-.836c-.748 0-1.44.368-1.875.87l-14.117 17.03V15.448c.111-.759.702-1.305 1.462-1.305h39.923c.769 0 1.394.569 1.44 1.34l.034 29.063-11.063-11.91z"/></g></svg>