<svg xmlns="http://www.w3.org/2000/svg" width="64" height="64" viewBox="0 0 64 64"><g fill="#FFF"><path d="M32.065 25.75H32h.065zM46.649 19.5h-6.315s3.385 2.214 4.113 6.25h2.2a4.073 4.073 0 0 1 4.104 4.104v4.166c0 2.293-1.813 4.23-4.104 4.23H32.065c-2.292 0-4.232-1.938-4.232-4.23v-4.102h-6.25v4.102c0 1.5.327 2.93.898 4.23 1.641 3.674 5.327 6.251 9.583 6.251h14.584C52.403 44.501 57 39.774 57 34.02v-4.166A10.302 10.302 0 0 0 46.649 19.5z"/><path d="M41.584 25.75a10.308 10.308 0 0 0-9.519-6.251H17.481C11.728 19.499 7 24.095 7 29.851v4.166C7 39.772 11.728 44.5 17.481 44.5h6.186s-3.359-2.214-4.181-6.25H17.48c-2.291 0-4.231-1.94-4.231-4.233v-4.166c0-2.292 1.94-4.102 4.231-4.102H32.065a4.068 4.068 0 0 1 4.102 4.102v4.232h6.251v-4.232c0-1.458-.301-2.851-.834-4.101z"/></g></svg>