<svg xmlns="http://www.w3.org/2000/svg" width="64" height="64" viewBox="0 0 64 64"><path fill="#FFF" d="M44.388 24.109c0-.57-.445-1.039-1.027-1.039h-5.779v-3.593c0-3.93-3.271-7.12-7.245-7.12H10.46v5.357h19.653c.503 0 1.105.625 1.105 1.127v4.229H8.048c-.581 0-1.048.469-1.048 1.039v26.497c0 .568.47 1.038 1.048 1.038h35.313c.581 0 1.026-.47 1.026-1.038v-7.199L57 47.278V27.59l-12.612 3.874v-7.355zM32.245 41.487H19.064a4.001 4.001 0 0 1-4.007-3.996 4.002 4.002 0 0 1 4.007-3.996c2.209 0 4.008 1.807 4.008 4.018 0 1.117-.47 2.076-1.206 2.858h7.578c-.737-.78-1.206-1.741-1.206-2.858a4.01 4.01 0 0 1 4.006-4.006c2.211 0 4.007 1.774 4.007 3.984a4.001 4.001 0 0 1-4.006 3.996z"/></svg>