<?xml version="1.0" encoding="utf-8"?>
<!-- Generator: Adobe Illustrator 15.1.0, SVG Export Plug-In . SVG Version: 6.00 Build 0)  -->
<!DOCTYPE svg PUBLIC "-//W3C//DTD SVG 1.1//EN" "http://www.w3.org/Graphics/SVG/1.1/DTD/svg11.dtd">
<svg version="1.1" id="Layer_1" xmlns="http://www.w3.org/2000/svg" xmlns:xlink="http://www.w3.org/1999/xlink" x="0px" y="0px"
	 width="64px" height="64px" viewBox="0 0 64 64" enable-background="new 0 0 64 64" xml:space="preserve">
<g>
	<path fill="#FFFFFF" d="M44.5,28.429c2.959,0,5.356-2.399,5.356-5.357s-2.397-5.357-5.356-5.357c-2.958,0-5.357,2.399-5.357,5.357
		S41.543,28.429,44.5,28.429z"/>
	<path fill="#FFFFFF" d="M53.876,10.571h-43.75C8.384,10.571,7,11.988,7,13.73V50.27c0,1.741,1.384,3.159,3.125,3.159h43.75
		c1.741,0,3.124-1.417,3.124-3.159v-36.54C57,11.989,55.617,10.571,53.876,10.571z M42.368,32.636
		c-0.336-0.391-0.847-0.692-1.429-0.692c-0.569,0-0.971,0.269-1.429,0.637l-2.086,1.763c-0.436,0.313-0.781,0.523-1.284,0.523
		c-0.48,0-0.916-0.178-1.228-0.456c-0.112-0.101-0.313-0.29-0.481-0.458l-6.004-6.495c-0.446-0.514-1.116-0.836-1.863-0.836
		c-0.748,0-1.44,0.368-1.875,0.87L10.572,44.522V15.448c0.111-0.759,0.702-1.305,1.462-1.305h39.923c0.769,0,1.394,0.569,1.44,1.34
		l0.034,29.063L42.368,32.636z"/>
</g>
</svg>
