<?xml version="1.0" encoding="utf-8"?>
<!-- Generator: Adobe Illustrator 15.1.0, SVG Export Plug-In . SVG Version: 6.00 Build 0)  -->
<!DOCTYPE svg PUBLIC "-//W3C//DTD SVG 1.1//EN" "http://www.w3.org/Graphics/SVG/1.1/DTD/svg11.dtd">
<svg version="1.1" id="Layer_1" xmlns="http://www.w3.org/2000/svg" xmlns:xlink="http://www.w3.org/1999/xlink" x="0px" y="0px"
	 width="64px" height="64px" viewBox="0 0 64 64" enable-background="new 0 0 64 64" xml:space="preserve">
<g>
	<path fill="#FFFFFF" d="M32.065,25.75H32l0,0C32.027,25.75,32.039,25.75,32.065,25.75z"/>
	<path fill="#FFFFFF" d="M46.649,19.5h-6.315c0,0,3.385,2.214,4.113,6.25h2.136h0.064c2.291,0,4.104,1.812,4.104,4.104v4.166
		c0,2.293-1.813,4.23-4.104,4.23H32.065c-2.292,0-4.232-1.938-4.232-4.23v-4.102h-6.25v4.102c0,1.5,0.327,2.93,0.898,4.23
		c1.641,3.674,5.327,6.251,9.583,6.251h14.584C52.403,44.501,57,39.774,57,34.02v-4.166C57.001,24.095,52.404,19.5,46.649,19.5z"/>
	<path fill="#FFFFFF" d="M41.584,25.75c-1.576-3.684-5.222-6.251-9.519-6.251H17.481C11.728,19.499,7,24.095,7,29.851v4.166
		C7,39.772,11.728,44.5,17.481,44.5h6.186c0,0-3.359-2.214-4.181-6.25H17.48c-2.291,0-4.231-1.94-4.231-4.233v-4.166
		c0-2.292,1.94-4.102,4.231-4.102H32h0.065c2.293,0,4.102,1.81,4.102,4.102v4.166c0,0.028,0,0.041,0,0.066h6.251
		c0-0.025,0-0.038,0-0.066v-4.166C42.418,28.393,42.117,27,41.584,25.75z"/>
</g>
</svg>
