<?xml version="1.0" encoding="utf-8"?>
<!-- Generator: Adobe Illustrator 15.1.0, SVG Export Plug-In . SVG Version: 6.00 Build 0)  -->
<!DOCTYPE svg PUBLIC "-//W3C//DTD SVG 1.1//EN" "http://www.w3.org/Graphics/SVG/1.1/DTD/svg11.dtd">
<svg version="1.1" id="Layer_1" xmlns="http://www.w3.org/2000/svg" xmlns:xlink="http://www.w3.org/1999/xlink" x="0px" y="0px"
	 width="64px" height="64px" viewBox="0 0 64 64" enable-background="new 0 0 64 64" xml:space="preserve">
<path fill="#FFFFFF" d="M44.388,24.109c0-0.57-0.445-1.039-1.027-1.039h-5.779v-3.593c0-3.93-3.271-7.12-7.245-7.12H10.46v5.357
	h19.653c0.503,0,1.105,0.625,1.105,1.127v4.229H8.048C7.467,23.07,7,23.539,7,24.109v19.019v6.216v1.262
	c0,0.568,0.47,1.038,1.048,1.038h35.313c0.581,0,1.026-0.47,1.026-1.038v-7.199L57,47.278v-9.842v-9.846l-12.612,3.874V24.109
	L44.388,24.109z M32.245,41.487h-1.216H20.392h-1.328c-2.211,0-4.007-1.787-4.007-3.996c0-2.21,1.798-3.996,4.007-3.996
	c2.209,0,4.008,1.807,4.008,4.018c0,1.117-0.47,2.076-1.206,2.858h7.578c-0.737-0.78-1.206-1.741-1.206-2.858
	c0-2.211,1.797-4.006,4.006-4.006c2.211,0,4.007,1.774,4.007,3.984C36.251,39.7,34.455,41.487,32.245,41.487z"/>
</svg>
